<svg xmlns="http://www.w3.org/2000/svg" viewBox="0 0 896 22.444">
  <title>divider</title>
  <rect x="189" y="16.525" width="707" height="2" style="fill: #004c59"/>
  <g>
    <g>
      <path d="M252.829,124.87a10.142,10.142,0,0,0-1.386-.552,5.087,5.087,0,0,0-1.521-.214,1.9,1.9,0,0,0-1.1.282.9.9,0,0,0-.406.777.843.843,0,0,0,.485.687,7.98,7.98,0,0,0,1.386.643,9.481,9.481,0,0,1,2.523,1.34,2.694,2.694,0,0,1,1.172,2.265,2.925,2.925,0,0,1-1.138,2.456,5.4,5.4,0,0,1-3.346.879,8.922,8.922,0,0,1-1.825-.248,4.733,4.733,0,0,1-1.871-.811l.766-1.848a7.873,7.873,0,0,0,1.488.552,5.68,5.68,0,0,0,1.419.192,3.039,3.039,0,0,0,1.454-.282.861.861,0,0,0,.507-.777,1.205,1.205,0,0,0-.53-.958,4.853,4.853,0,0,0-1.521-.732,10.185,10.185,0,0,1-2.445-1.206,2.413,2.413,0,0,1-1.16-2.107,2.861,2.861,0,0,1,1.126-2.4,4.906,4.906,0,0,1,3.065-.867,7.394,7.394,0,0,1,1.78.281,5.97,5.97,0,0,1,1.848.8Z" transform="translate(-64 -113)" style="fill: #004c59"/>
      <path d="M243.342,117.254v15.909h-1.374l-.7-1.037a5.064,5.064,0,0,1-1.69.969,5.45,5.45,0,0,1-1.78.338,4.281,4.281,0,0,1-3.64-1.656,6.669,6.669,0,0,1-1.25-4.135,6.429,6.429,0,0,1,1.318-4.135,4.444,4.444,0,0,1,3.684-1.657,4.99,4.99,0,0,1,1.42.237,5.521,5.521,0,0,1,1.442.665V117.5Zm-4.912,6.76a2.352,2.352,0,0,0-2.254,1.138,5.045,5.045,0,0,0-.631,2.49,5.185,5.185,0,0,0,.6,2.546,2.377,2.377,0,0,0,2.288,1.082,3.067,3.067,0,0,0,1.183-.259,5.413,5.413,0,0,0,1.16-.665v-5.408a4.6,4.6,0,0,0-1.16-.676A3.2,3.2,0,0,0,238.43,124.014Z" transform="translate(-64 -113)" style="fill: #004c59"/>
      <path d="M225.563,133.163V122.234h1.374c.136.27.274.537.417.8s.282.522.417.777a8.564,8.564,0,0,1,1.623-1.07,3.989,3.989,0,0,1,1.847-.507l.519,2.05a4.348,4.348,0,0,0-1.792.451A7.164,7.164,0,0,0,228.109,126v7.166Z" transform="translate(-64 -113)" style="fill: #004c59"/>
      <path d="M214.228,122.932a5.637,5.637,0,0,1,1.871-.71,9.4,9.4,0,0,1,1.937-.281,4.947,4.947,0,0,1,3.268,1.1,3.5,3.5,0,0,1,1.33,2.817v7.3h-1.375c-.1-.15-.211-.312-.316-.485s-.21-.334-.315-.484a5.8,5.8,0,0,1-1.442.867,4.222,4.222,0,0,1-1.69.372,3.944,3.944,0,0,1-2.919-.969,3.407,3.407,0,0,1-.957-2.5,3.066,3.066,0,0,1,1.127-2.558,4.623,4.623,0,0,1,2.952-.89h2.366a3.27,3.27,0,0,0-.5-1.611,1.654,1.654,0,0,0-1.487-.642,6.588,6.588,0,0,0-1.7.225,8.293,8.293,0,0,0-1.453.518q-.181-.517-.361-1.036T214.228,122.932Zm1.6,7.031a1.453,1.453,0,0,0,.428,1,1.548,1.548,0,0,0,1.195.462,3.036,3.036,0,0,0,1.386-.35,4.919,4.919,0,0,0,1.25-.912v-1.938h-2.434a1.732,1.732,0,0,0-1.363.518A1.771,1.771,0,0,0,215.828,129.963Z" transform="translate(-64 -113)" style="fill: #004c59"/>
      <path d="M210.893,117.254v15.909h-1.374l-.7-1.037a5.064,5.064,0,0,1-1.69.969,5.45,5.45,0,0,1-1.78.338,4.278,4.278,0,0,1-3.639-1.656,6.663,6.663,0,0,1-1.251-4.135,6.429,6.429,0,0,1,1.318-4.135,4.445,4.445,0,0,1,3.685-1.657,4.989,4.989,0,0,1,1.419.237,5.521,5.521,0,0,1,1.442.665V117.5Zm-4.912,6.76a2.352,2.352,0,0,0-2.254,1.138,5.056,5.056,0,0,0-.631,2.49,5.185,5.185,0,0,0,.6,2.546,2.377,2.377,0,0,0,2.288,1.082,3.067,3.067,0,0,0,1.183-.259,5.413,5.413,0,0,0,1.16-.665v-5.408a4.6,4.6,0,0,0-1.16-.676A3.2,3.2,0,0,0,205.981,124.014Z" transform="translate(-64 -113)" style="fill: #004c59"/>
      <path d="M190.229,123.541a5.236,5.236,0,0,1,1.837-1.229,5.359,5.359,0,0,1,2.017-.462,3.568,3.568,0,0,1,3.031,1.229,4.9,4.9,0,0,1,.935,3.053v7.031H195.5V126.29a2.529,2.529,0,0,0-.507-1.668,1.868,1.868,0,0,0-1.521-.608,3.419,3.419,0,0,0-1.442.372,5.853,5.853,0,0,0-1.42.935v7.842h-2.546V122.234h1.4Z" transform="translate(-64 -113)" style="fill: #004c59"/>
      <path d="M176.732,122.932a5.631,5.631,0,0,1,1.87-.71,9.4,9.4,0,0,1,1.938-.281,4.942,4.942,0,0,1,3.267,1.1,3.5,3.5,0,0,1,1.33,2.817v7.3h-1.375q-.157-.225-.315-.485c-.106-.172-.211-.334-.316-.484a5.8,5.8,0,0,1-1.442.867,4.218,4.218,0,0,1-1.69.372,3.94,3.94,0,0,1-2.918-.969,3.4,3.4,0,0,1-.958-2.5,3.066,3.066,0,0,1,1.127-2.558,4.625,4.625,0,0,1,2.952-.89h2.366a3.27,3.27,0,0,0-.5-1.611,1.653,1.653,0,0,0-1.487-.642,6.581,6.581,0,0,0-1.7.225,8.306,8.306,0,0,0-1.454.518l-.36-1.036Q176.889,123.45,176.732,122.932Zm1.6,7.031a1.449,1.449,0,0,0,.428,1,1.546,1.546,0,0,0,1.194.462,3.036,3.036,0,0,0,1.386-.35,4.906,4.906,0,0,0,1.251-.912v-1.938h-2.434a1.734,1.734,0,0,0-1.364.518A1.77,1.77,0,0,0,178.332,129.963Z" transform="translate(-64 -113)" style="fill: #004c59"/>
      <path d="M174.681,133.005a3.339,3.339,0,0,1-.935.394,4.032,4.032,0,0,1-1.093.169,4.17,4.17,0,0,1-2.884-.946,3.464,3.464,0,0,1-1.059-2.727v-5.633h-1.488V122.3h1.488v-2.636l2.546-.519V122.3h1.983l.789,1.961h-2.772v5.205a2.377,2.377,0,0,0,.383,1.386,1.353,1.353,0,0,0,1.194.552,2.11,2.11,0,0,0,.575-.079,4.675,4.675,0,0,0,.552-.191Z" transform="translate(-64 -113)" style="fill: #004c59"/>
      <path d="M165.014,124.87a10.142,10.142,0,0,0-1.386-.552,5.087,5.087,0,0,0-1.521-.214,1.9,1.9,0,0,0-1.1.282.9.9,0,0,0-.406.777.843.843,0,0,0,.485.687,7.98,7.98,0,0,0,1.386.643,9.5,9.5,0,0,1,2.524,1.34,2.693,2.693,0,0,1,1.171,2.265,2.925,2.925,0,0,1-1.138,2.456,5.4,5.4,0,0,1-3.346.879,8.922,8.922,0,0,1-1.825-.248,4.733,4.733,0,0,1-1.871-.811l.767-1.848a7.839,7.839,0,0,0,1.487.552,5.682,5.682,0,0,0,1.42.192,3.035,3.035,0,0,0,1.453-.282.861.861,0,0,0,.507-.777,1.205,1.205,0,0,0-.53-.958,4.853,4.853,0,0,0-1.521-.732,10.185,10.185,0,0,1-2.445-1.206,2.415,2.415,0,0,1-1.16-2.107,2.86,2.86,0,0,1,1.127-2.4,4.9,4.9,0,0,1,3.064-.867,7.408,7.408,0,0,1,1.781.281,5.964,5.964,0,0,1,1.847.8Z" transform="translate(-64 -113)" style="fill: #004c59"/>
    </g>
    <g>
      <path d="M152.068,124.328l-.544,4.483a.986.986,0,0,0,.236.732.716.716,0,0,0,.5.229,1.66,1.66,0,0,0,1.372-.927,4.655,4.655,0,0,0,.592-2.527,4.458,4.458,0,0,0-1.479-3.466,5.473,5.473,0,0,0-3.82-1.338,7.2,7.2,0,0,0-4.743,1.773,5.949,5.949,0,0,0-2.117,4.815,4.724,4.724,0,0,0,1.679,3.843,5.993,5.993,0,0,0,3.951,1.4,12.876,12.876,0,0,0,1.928-.16,6.592,6.592,0,0,0,2-.64c.11.32.551,1.623.662,1.944a7.683,7.683,0,0,1-2.437.789,17.506,17.506,0,0,1-2.412.171,8.2,8.2,0,0,1-5.335-2,6.575,6.575,0,0,1-2.424-5.341,8.413,8.413,0,0,1,2.507-6.073,9.042,9.042,0,0,1,6.789-2.574,7.723,7.723,0,0,1,5.358,1.9,6.2,6.2,0,0,1,2.117,4.826,6.307,6.307,0,0,1-1.218,4.209,3.916,3.916,0,0,1-3.11,1.418,3.078,3.078,0,0,1-1.018-.171,2.993,2.993,0,0,1-.875-.469,5.864,5.864,0,0,1-.958.423,3.308,3.308,0,0,1-1.1.195,4.205,4.205,0,0,1-3.111-1.018,3.571,3.571,0,0,1-1-2.619,4.137,4.137,0,0,1,1.656-3.454,5.983,5.983,0,0,1,3.761-1.281h1.845C151.437,123.565,151.958,124.175,152.068,124.328Zm-3.95,5.444a1.186,1.186,0,0,0,.78-.275,1.224,1.224,0,0,0,.426-.686c0-.092.45-3.5.45-3.5h-.284a3.341,3.341,0,0,0-2.141.744,2.52,2.52,0,0,0-.934,2.093,1.8,1.8,0,0,0,.39,1.109A1.545,1.545,0,0,0,148.118,129.772Z" transform="translate(-64 -113)" style="fill: #004c59"/>
      <path d="M134,113v18.533h4.26a9.271,9.271,0,0,1-.622-3.431,10.328,10.328,0,0,1,3.061-7.423,11.066,11.066,0,0,1,8.27-3.192,10.649,10.649,0,0,1,4.2.8V113Z" transform="translate(-64 -113)" style="fill: #fcb80d"/>
    </g>
  </g>
  <rect y="16.525" width="70" height="2" style="fill: #fcb80d"/>
</svg>
