<svg xmlns="http://www.w3.org/2000/svg" viewBox="0 0 1024 1024">
  <title>logo</title>
  <path d="M952.344,644.813,927.521,849.352q0,22.968,10.778,33.4,10.794,10.437,22.667,10.437,35.616,0,62.6-42.264t26.994-115.313q0-97.067-67.453-158.106T808.8,516.448q-119.808,0-216.4,80.889T495.808,817q0,111.69,76.623,175.342t180.24,63.653q39.943,0,87.964-7.311a300.13,300.13,0,0,0,91.2-29.213c5.041,14.607,25.171,74.075,30.212,88.7Q907,1136.328,850.882,1144.176A797.4,797.4,0,0,1,740.8,1152q-132.743,0-243.365-91.311T386.819,817q0-159.645,114.395-277.059t309.74-117.413q147.84,0,244.443,86.629T1152,729.341q0,127.321-55.581,192.033-55.589,64.695-141.92,64.695a140.953,140.953,0,0,1-46.411-7.824,135.788,135.788,0,0,1-39.928-21.4q-18.356,10.438-43.725,19.321a151.2,151.2,0,0,1-50.176,8.866q-96.056,0-141.92-46.433T586.475,819.1q0-99.135,75.545-157.594,75.537-58.442,171.6-58.442h84.184C923.558,610.02,947.3,637.854,952.344,644.813ZM772.1,893.187q20.495,0,35.617-12.522a55.978,55.978,0,0,0,19.417-31.313c0-4.169,20.511-159.662,20.511-159.662H834.7q-55.042,0-97.665,33.911T694.4,819.1q0,27.128,17.808,50.617Q730.02,893.188,772.1,893.187Z" transform="translate(-128 -128)" style="fill: #004c59"/>
  <path d="M128,128V973.542H322.379C303.519,925.959,293.963,873.394,293.963,817c0-129.591,46.991-243.523,139.669-338.632,94.138-96.629,221.089-145.627,377.322-145.627,70.207,0,134.206,12.291,191.482,36.627V128Z" transform="translate(-128 -128)" style="fill: #fcb80d"/>
</svg>
