<svg xmlns="http://www.w3.org/2000/svg" viewBox="0 0 896 167.615">
  <title>logotype-horizontal</title>
  <g>
    <path d="M951.418,196.838a75.5,75.5,0,0,0-10.35-4.123,38.12,38.12,0,0,0-11.36-1.6q-5.218,0-8.246,2.1a6.694,6.694,0,0,0-3.029,5.806q0,2.863,3.618,5.133a59.394,59.394,0,0,0,10.35,4.8,70.924,70.924,0,0,1,18.848,10.013Q960,225.448,960,235.881q0,11.781-8.5,18.343t-24.99,6.563a66.6,66.6,0,0,1-13.632-1.851,35.4,35.4,0,0,1-13.967-6.059l5.721-13.8a59.269,59.269,0,0,0,11.108,4.123,42.481,42.481,0,0,0,10.6,1.43q7.069,0,10.855-2.1t3.786-5.806q0-4.038-3.955-7.152a36.359,36.359,0,0,0-11.359-5.469,75.687,75.687,0,0,1-18.259-9q-8.668-5.807-8.666-15.735,0-11.442,8.413-17.923t22.887-6.479a55.031,55.031,0,0,1,13.3,2.1,44.5,44.5,0,0,1,13.8,5.974Z" transform="translate(-64 -108.192)" style="fill: #004c59"/>
    <path d="M880.569,139.958v118.81H870.3l-5.217-7.742a37.9,37.9,0,0,1-12.621,7.237,40.652,40.652,0,0,1-13.295,2.524q-17.841,0-27.178-12.369t-9.34-30.88q0-18.512,9.845-30.881t27.515-12.369a37.334,37.334,0,0,1,10.6,1.767,41.163,41.163,0,0,1,10.77,4.964v-39.21Zm-36.687,50.485q-12.115,0-16.828,8.5a37.7,37.7,0,0,0-4.712,18.6,38.732,38.732,0,0,0,4.459,19.016q4.458,8.077,17.081,8.077a22.887,22.887,0,0,0,8.835-1.935,40.267,40.267,0,0,0,8.668-4.964V197.343a34.732,34.732,0,0,0-8.668-5.048A23.792,23.792,0,0,0,843.882,190.443Z" transform="translate(-64 -108.192)" style="fill: #004c59"/>
    <path d="M747.792,258.768V177.149h10.266q1.514,3.029,3.113,5.974t3.113,5.806a63.886,63.886,0,0,1,12.117-7.994,29.81,29.81,0,0,1,13.8-3.786l3.871,15.314a32.417,32.417,0,0,0-13.379,3.365,53.429,53.429,0,0,0-13.884,9.425v53.515Z" transform="translate(-64 -108.192)" style="fill: #004c59"/>
    <path d="M663.146,182.366q4.708-3.2,13.968-5.3a69.919,69.919,0,0,1,14.472-2.1q14.47,0,24.4,8.246a26.152,26.152,0,0,1,9.929,21.036v54.525H715.651q-1.179-1.681-2.356-3.619t-2.355-3.618a43.245,43.245,0,0,1-10.771,6.479,31.536,31.536,0,0,1-12.622,2.777q-14.64,0-21.793-7.236t-7.152-18.68q0-12.452,8.415-19.1t22.045-6.647h17.67a24.417,24.417,0,0,0-3.7-12.032q-3.2-4.8-11.107-4.8a49.176,49.176,0,0,0-12.705,1.682,62.173,62.173,0,0,0-10.855,3.871q-1.349-3.869-2.693-7.741T663.146,182.366Zm11.948,52.505a10.819,10.819,0,0,0,3.2,7.488q3.193,3.453,8.919,3.45a22.633,22.633,0,0,0,10.35-2.608,36.594,36.594,0,0,0,9.339-6.816V221.913H688.726q-6.734,0-10.182,3.871A13.22,13.22,0,0,0,675.094,234.871Z" transform="translate(-64 -108.192)" style="fill: #004c59"/>
    <path d="M638.24,139.958v118.81H627.975l-5.217-7.742a37.912,37.912,0,0,1-12.621,7.237,40.657,40.657,0,0,1-13.295,2.524q-17.841,0-27.178-12.369t-9.341-30.88q0-18.512,9.846-30.881t27.514-12.369a37.335,37.335,0,0,1,10.6,1.767,41.163,41.163,0,0,1,10.77,4.964v-39.21Zm-36.687,50.485q-12.115,0-16.828,8.5a37.7,37.7,0,0,0-4.712,18.6,38.732,38.732,0,0,0,4.459,19.016q4.458,8.077,17.081,8.077a22.887,22.887,0,0,0,8.835-1.935,40.267,40.267,0,0,0,8.668-4.964V197.343a34.732,34.732,0,0,0-8.668-5.048A23.792,23.792,0,0,0,601.553,190.443Z" transform="translate(-64 -108.192)" style="fill: #004c59"/>
    <path d="M483.922,186.91a39.028,39.028,0,0,1,13.715-9.172,39.9,39.9,0,0,1,15.062-3.45q15.651,0,22.634,9.171t6.984,22.8v52.506H523.3V207.44q0-7.908-3.787-12.453t-11.359-4.544a25.543,25.543,0,0,0-10.77,2.777,43.922,43.922,0,0,0-10.6,6.984v58.564H467.767V177.149H478.2Z" transform="translate(-64 -108.192)" style="fill: #004c59"/>
    <path d="M383.12,182.366q4.71-3.2,13.968-5.3a69.927,69.927,0,0,1,14.473-2.1q14.471,0,24.4,8.246a26.149,26.149,0,0,1,9.929,21.036v54.525H435.625q-1.179-1.681-2.355-3.619t-2.357-3.618a43.2,43.2,0,0,1-10.77,6.479,31.531,31.531,0,0,1-12.621,2.777q-14.641,0-21.793-7.236t-7.152-18.68q0-12.452,8.414-19.1t22.045-6.647h17.671a24.428,24.428,0,0,0-3.7-12.032q-3.2-4.8-11.107-4.8a49.182,49.182,0,0,0-12.7,1.682,62.2,62.2,0,0,0-10.855,3.871q-1.349-3.869-2.693-7.741T383.12,182.366Zm11.949,52.505a10.822,10.822,0,0,0,3.2,7.488q3.195,3.453,8.919,3.45a22.63,22.63,0,0,0,10.35-2.608,36.6,36.6,0,0,0,9.34-6.816V221.913H408.7q-6.733,0-10.181,3.871A13.22,13.22,0,0,0,395.069,234.871Z" transform="translate(-64 -108.192)" style="fill: #004c59"/>
    <path d="M367.808,257.589a25.062,25.062,0,0,1-6.984,2.946,30.206,30.206,0,0,1-8.161,1.262q-13.632,0-21.541-7.068t-7.909-20.363V192.3H312.106V177.654h11.107v-19.69l19.016-3.87v23.56h14.809l5.89,14.641h-20.7v38.874a17.716,17.716,0,0,0,2.861,10.349q2.859,4.126,8.919,4.123a15.77,15.77,0,0,0,4.291-.589,35.134,35.134,0,0,0,4.123-1.43Z" transform="translate(-64 -108.192)" style="fill: #004c59"/>
    <path d="M295.614,196.838a75.435,75.435,0,0,0-10.349-4.123,38.118,38.118,0,0,0-11.359-1.6q-5.219,0-8.246,2.1a6.693,6.693,0,0,0-3.03,5.806q0,2.863,3.619,5.133a59.343,59.343,0,0,0,10.349,4.8,70.909,70.909,0,0,1,18.848,10.013q8.748,6.48,8.751,16.913,0,11.781-8.5,18.343t-24.991,6.563a66.582,66.582,0,0,1-13.631-1.851,35.381,35.381,0,0,1-13.968-6.059l5.722-13.8a59.235,59.235,0,0,0,11.107,4.123,42.488,42.488,0,0,0,10.6,1.43q7.068,0,10.854-2.1t3.787-5.806q0-4.038-3.955-7.152a36.377,36.377,0,0,0-11.36-5.469,75.645,75.645,0,0,1-18.258-9q-8.67-5.807-8.667-15.735,0-11.442,8.414-17.923t22.887-6.479a55.031,55.031,0,0,1,13.294,2.1,44.513,44.513,0,0,1,13.8,5.974Z" transform="translate(-64 -108.192)" style="fill: #004c59"/>
  </g>
  <g>
    <path d="M198.934,192.788l-4.063,33.48q0,3.759,1.764,5.467a5.309,5.309,0,0,0,3.71,1.708q5.831,0,10.246-6.918t4.419-18.875q0-15.888-11.041-25.88t-28.531-9.994q-19.611,0-35.423,13.241t-15.81,35.955q0,18.282,12.542,28.7a44.739,44.739,0,0,0,29.5,10.419,96.384,96.384,0,0,0,14.4-1.2,49.139,49.139,0,0,0,14.928-4.782c.825,2.391,4.12,12.125,4.945,14.518a57.256,57.256,0,0,1-18.2,5.895,130.511,130.511,0,0,1-18.019,1.281q-21.727,0-39.836-14.947t-18.106-39.889q0-26.132,18.725-45.351t50.7-19.219q24.2,0,40.012,14.18t15.812,36.042q0,20.841-9.1,31.433a29.263,29.263,0,0,1-23.23,10.59,23.065,23.065,0,0,1-7.6-1.281,22.227,22.227,0,0,1-6.536-3.5A43.722,43.722,0,0,1,178,247.025a24.755,24.755,0,0,1-8.213,1.451q-15.723,0-23.23-7.6t-7.508-19.56q0-16.227,12.366-25.8a44.689,44.689,0,0,1,28.089-9.566h13.78C194.222,187.093,198.109,191.649,198.934,192.788Zm-29.5,40.655a8.853,8.853,0,0,0,5.83-2.049,9.168,9.168,0,0,0,3.179-5.126c0-.682,3.357-26.134,3.357-26.134h-2.12a24.968,24.968,0,0,0-15.986,5.55q-6.978,5.552-6.978,15.632a13.439,13.439,0,0,0,2.915,8.285Q162.543,233.444,169.431,233.443Z" transform="translate(-64 -108.192)" style="fill: #004c59"/>
    <path d="M64,108.192V246.6H95.817a69.181,69.181,0,0,1-4.651-25.624c0-21.213,7.692-39.862,22.862-55.43,15.409-15.817,36.189-23.837,61.763-23.837a79.483,79.483,0,0,1,31.343,6V108.192Z" transform="translate(-64 -108.192)" style="fill: #fcb80d"/>
  </g>
</svg>
